<?xml version="1.0" encoding="UTF-8"?>
<svg id="Layer_1" xmlns="http://www.w3.org/2000/svg" version="1.1" viewBox="0 0 538.6 503.7">
  <!-- Generator: Adobe Illustrator 29.7.0, SVG Export Plug-In . SVG Version: 2.1.1 Build 138)  -->
  <defs>
    <style>
      .st0 {
        fill: #1d1d1b;
      }

      .st1 {
        fill: #1f9dd9;
      }
    </style>
  </defs>
  <g>
    <path class="st1" d="M77.5,226.7c.9.9,1.4,2.3,1.4,4v49.1c-.1,10.8-.5,19.1-1.2,24.9s-1.7,9.7-3,11.8c-1.3,2.1-3.1,3.2-5.3,3.2s-5.5-1.4-8.5-4.2c-3-2.8-6.3-6.9-9.9-12.4-3.7-5.4-9-13.6-16-24.7-6.5-10.4-11.5-18.2-14.9-23.3-3.4-5.2-6.3-9.4-8.7-12.7,0,6.1,0,11,.1,14.7v17.9c.1,0,.3,40.7.3,40.7,0,1.2-.5,2.2-1.5,3-1,.9-2.2,1.3-3.8,1.3s-2.7-.4-3.7-1.3c-1-.8-1.5-1.9-1.5-3v-40.9c0-8.5,0-15.1-.1-19.9v-20c-.1-2.9.3-5,1.2-6.4.9-1.4,2.5-2.1,4.7-2.1s4.8,1.1,7.3,3.2c2.4,2.2,4.9,5.1,7.5,8.9,2.6,3.8,6.3,9.6,11.2,17.5-.7-1.3,1.7,2.6,7.1,11.6,11.1,17.7,20,30.9,26.6,39.4.9-6.5,1.3-15.6,1.3-27.2v-49.6c0-1.4.5-2.6,1.4-3.4.9-.8,2.2-1.3,3.8-1.3s3.1.5,4,1.4Z"/>
    <path class="st1" d="M141.8,310.7c.4,1.2.9,2.3,1.5,3.3.6,1,.9,1.7.9,2.1,0,1-.5,1.9-1.5,2.8-1,.9-1.9,1.3-2.8,1.3-1.8,0-3.4-1.1-4.8-3.4-1.4-2.2-2.1-4.4-2.1-6.5v-1.9c-1.9,4.1-4.8,7.3-8.7,9.4-3.9,2.2-8.4,3.2-13.4,3.2-7.6,0-13.3-2.6-17.1-7.8-3.8-5.2-5.6-12.8-5.6-22.7v-33.2c0-1.2.5-2.1,1.4-2.8.9-.7,2.1-1.1,3.6-1.1s2.8.4,3.8,1.1c1,.7,1.5,1.7,1.5,2.8v33.5c0,7.5,1.1,13,3.2,16.5,2.2,3.5,5.6,5.2,10.4,5.2,12.1,0,18.2-11,18.2-32.9v-22.5c0-1.4.4-2.6,1.3-3.4.9-.8,2.1-1.2,3.6-1.2s2.9.4,3.9,1.2c1,.8,1.5,1.9,1.5,3.4l.5,49.1c0,1.7.2,3.1.6,4.3Z"/>
    <path class="st1" d="M197.6,257.5c3.2,3.6,4.8,8,4.8,13.2s-1.5,8.8-4.4,11.6c-3,2.8-6.8,4.2-11.4,4.2s-3.1-.3-3.8-.8c-.8-.5-1.1-1.5-1.1-3,0-2.3,1.1-3.5,3.4-3.6,5.8-.5,8.7-3.4,8.7-8.6s-.8-5.2-2.3-7.1c-1.5-2-4-3-7.4-3s-6.7,1.5-9.3,4.6c-2.6,3-4.7,6.8-6.2,11.4-1.5,4.5-2.4,9-2.7,13.4-.5,8.2-.8,16-.8,23.4s-.3,6.1-1,7.3c-.7,1.2-2,1.7-4,1.7s-3.3-.5-4.1-1.4c-.8-.9-1.1-2.6-1.1-4.9v-25.7c-.1-5.9-.6-13.7-1.5-23.4-.5-5.6-.8-9.7-.9-12.1,0-1.4.3-2.5,1.2-3.3.9-.8,2.2-1.1,3.8-1.1,2.8,0,4.3,1.3,4.4,4,.5,5.6.8,11.2.9,16.5,1.5-5.9,4.2-10.5,7.9-13.9,3.8-3.3,8.3-5,13.6-5s10.2,1.8,13.4,5.4Z"/>
    <path class="st1" d="M251.7,300.4c.7.8,1,2.1,1,4.1,0,4.7-1.5,8.6-4.6,11.8-3.1,3.2-7.1,4.8-11.9,4.8s-11.5-3-14.5-8.9c-2.9-5.9-4.4-15.1-4.4-27.6s.2-10,.7-16c-1,0-3.8-.3-8.3-.7-2.7-.3-4-1.7-4-4.4s1.3-4,3.9-4,2.2,0,4.6.3c2,.2,3.5.3,4.6.3.6-6.6,1.7-15,3.2-25,.2-1.3.7-2.3,1.4-3,.8-.7,2-1,3.7-1s3.1.5,4,1.3c1,.9,1.4,2,1.2,3.4l-.7,4.4c-1.3,10.4-2.2,17.2-2.6,20.4l10.8.3c1.3,0,2.3.3,3,.8.7.5,1,1.5,1,2.8s-.3,2.8-1,3.4c-.7.6-1.9.9-3.8,1-2.8,0-6.4.1-10.8.1-.4,5.6-.7,10.8-.7,15.6,0,8.7.7,15.5,2.1,20.4,1.4,4.9,3.9,7.4,7.6,7.4s3.5-.8,4.7-2.3c1.2-1.5,1.8-3.8,2-6.9,0-1.4.4-2.5.9-3.2.5-.7,1.6-1,3.4-1s2.8.4,3.4,1.1Z"/>
    <path class="st1" d="M311.8,310.7c.4,1.2.9,2.3,1.5,3.3.6,1,.9,1.7.9,2.1,0,1-.5,1.9-1.5,2.8-1,.9-1.9,1.3-2.8,1.3-1.8,0-3.4-1.1-4.8-3.4-1.4-2.2-2.1-4.4-2.1-6.5v-1.9c-1.9,4.1-4.8,7.3-8.7,9.4-3.9,2.2-8.4,3.2-13.4,3.2-7.6,0-13.3-2.6-17.1-7.8-3.8-5.2-5.6-12.8-5.6-22.7v-33.2c0-1.2.5-2.1,1.4-2.8.9-.7,2.1-1.1,3.6-1.1s2.8.4,3.8,1.1c1,.7,1.5,1.7,1.5,2.8v33.5c0,7.5,1.1,13,3.2,16.5,2.2,3.5,5.6,5.2,10.4,5.2,12.1,0,18.2-11,18.2-32.9v-22.5c0-1.4.4-2.6,1.3-3.4.9-.8,2.1-1.2,3.6-1.2s2.9.4,3.9,1.2c1,.8,1.5,1.9,1.5,3.4l.5,49.1c0,1.7.2,3.1.6,4.3Z"/>
    <path class="st1" d="M367.5,257.5c3.2,3.6,4.8,8,4.8,13.2s-1.5,8.8-4.4,11.6c-3,2.8-6.8,4.2-11.4,4.2s-3.1-.3-3.8-.8c-.8-.5-1.1-1.5-1.1-3,0-2.3,1.1-3.5,3.4-3.6,5.8-.5,8.7-3.4,8.7-8.6s-.8-5.2-2.3-7.1c-1.5-2-4-3-7.4-3s-6.7,1.5-9.3,4.6c-2.6,3-4.7,6.8-6.2,11.4-1.5,4.5-2.4,9-2.7,13.4-.5,8.2-.8,16-.8,23.4s-.3,6.1-1,7.3c-.7,1.2-2,1.7-4,1.7s-3.3-.5-4.1-1.4c-.8-.9-1.1-2.6-1.1-4.9v-25.7c-.1-5.9-.6-13.7-1.5-23.4-.5-5.6-.8-9.7-.9-12.1,0-1.4.3-2.5,1.2-3.3.9-.8,2.2-1.1,3.8-1.1,2.8,0,4.3,1.3,4.4,4,.5,5.6.8,11.2.9,16.5,1.5-5.9,4.2-10.5,7.9-13.9,3.8-3.3,8.3-5,13.6-5s10.2,1.8,13.4,5.4Z"/>
    <path class="st1" d="M387,242.7c-1.6-1.6-2.4-3.6-2.4-6s.8-4.4,2.4-6,3.7-2.3,6.2-2.3,4.4.8,6,2.3c1.6,1.5,2.4,3.5,2.4,5.9s-.8,4.4-2.5,6c-1.7,1.6-3.7,2.4-6.1,2.4s-4.3-.8-5.9-2.4ZM387.1,319.1c-.9-.8-1.4-1.9-1.4-3.2l1.3-57.1c0-1.5.5-2.7,1.4-3.5.9-.8,2.2-1.2,3.8-1.2s2.9.4,3.8,1.2c.9.8,1.4,2,1.4,3.6l-1.3,57c0,1.4-.6,2.5-1.5,3.3-.9.8-2.2,1.1-3.7,1.1s-2.9-.4-3.8-1.2Z"/>
    <path class="st1" d="M466.9,284.9v31.5c0,3.1-1.7,4.7-5,4.7s-5.4-1.5-5.4-4.6v-31.7c0-7.9-.9-13.7-2.7-17.4-1.8-3.7-5-5.6-9.7-5.6s-9,1.9-12.1,5.7c-3.2,3.8-5.3,8.7-6.6,14.8-.8,4.1-1.2,9.2-1.2,15.2v19.9c.1,1.3-.3,2.2-1.2,2.9s-2.1,1-3.6,1-3-.4-3.9-1.1c-.9-.7-1.3-1.7-1.3-2.8,0-8-.2-17.7-.5-29.2-.3-6.6-.4-12.5-.4-17.6s-.2-4-.7-5.3c-.5-1.3-1.5-3.1-2.9-5.4-.4-.5-.5-1.2-.5-1.9,0-1.1.6-2.1,1.8-3,1.2-.9,2.4-1.4,3.6-1.4s2.4.9,3.6,2.6c1,1.4,1.9,3.2,2.8,5.2.8,2,1.3,3.9,1.3,5.7v1.5c1.6-4.5,4.2-8.2,7.8-11.2,3.6-3,8.3-4.4,14.2-4.4,15.1,0,22.7,10.7,22.7,32.1Z"/>
    <path class="st1" d="M536.3,305.3c.6,3.9,1.1,6.8,1.3,8.9.3,2.1.4,4.2.4,6.5,0,6.8-1.3,12.8-4,18-2.7,5.2-6.5,9.1-11.4,12-4.9,2.8-10.6,4.2-17.1,4.2s-9.2-1-13.3-3c-4.1-2-7.4-4.7-9.9-8.1-2.5-3.4-3.7-7-3.7-11s1.7-4,5-4,1.9.2,2.5.7c.6.5,1,1.3,1.3,2.5,1.1,4.8,3.2,8.3,6.4,10.6,3.2,2.3,7.1,3.5,11.8,3.5,7.2,0,12.7-2.2,16.5-6.7,3.8-4.5,5.8-10.7,5.8-18.7s-.4-6-1.1-10.1c-2.1,3-5,5.5-8.7,7.3-3.7,1.8-8.1,2.8-13.1,2.8s-12.5-1.5-17.5-4.6c-5-3-8.9-7.1-11.5-12.1-2.6-5-4-10.4-4-16.3s1.3-11.7,3.9-16.9c2.6-5.3,6.3-9.5,11.1-12.8s10.3-4.8,16.6-4.8,7.6.6,10.7,1.7c3.1,1.2,5.5,2.6,7.2,4.3,1.4-4.1,2.3-6.5,2.5-7,.8-1.5,2-2.3,3.5-2.3s2.6.4,3.8,1.1c1.2.7,1.9,1.6,2,2.7,0,.5,0,.9-.1,1.2,0,.4-.4,1.3-.9,3-.5,1.6-1.1,4-1.9,7.1l4.8,33.2,1.1,7.1ZM513.5,309.3c3-1.2,5.5-2.7,7.7-4.6,2.2-1.8,3.5-3.7,3.9-5.4-.5-4.3-1.5-11.5-3.2-21.5l-1.2-7c-.5-1.2-1.5-2.4-3.1-3.7-1.6-1.3-3.6-2.4-6-3.3-2.4-.9-5-1.3-7.7-1.3-4.2,0-7.9,1.1-11.2,3.3-3.3,2.2-5.8,5.2-7.7,8.9-1.8,3.8-2.8,8-2.8,12.6s.8,8.1,2.5,11.8,4.2,6.5,7.6,8.7c3.4,2.2,7.6,3.3,12.5,3.3s5.8-.6,8.7-1.8Z"/>
  </g>
  <g>
    <path class="st0" d="M132.5,337.7c1.6,1.6,2.3,3.9,2.3,6.8l-.2,84.2c0,18.6-.6,32.9-1.7,42.7-1.2,9.8-2.8,16.6-5.1,20.2-2.2,3.6-5.3,5.4-9.1,5.4s-9.5-2.4-14.6-7.3c-5.1-4.8-10.8-11.9-17.1-21.2-6.3-9.3-15.4-23.4-27.5-42.3-11.2-17.8-19.7-31.2-25.5-40-5.8-8.8-10.7-16.1-14.9-21.8,0,10.5,0,18.8.2,25.2l.2,30.7.2,69.9c0,2-.8,3.7-2.5,5.2-1.7,1.5-3.8,2.2-6.5,2.2s-4.6-.7-6.3-2.2c-1.8-1.5-2.7-3.2-2.7-5.2v-70.2c0-14.6,0-26-.2-34.2l-.2-34.4c0-4.9.8-8.6,2.3-11,1.6-2.4,4.2-3.6,8.1-3.6s8.3,1.8,12.5,5.5c4.1,3.7,8.4,8.8,12.8,15.2,4.4,6.5,10.8,16.5,19.3,30-1.2-2.2,2.8,4.5,12.2,19.8,19.1,30.5,34.3,53,45.7,67.6,1.5-11.2,2.3-26.8,2.3-46.6v-85.2c0-2.5.8-4.4,2.4-5.9,1.6-1.5,3.8-2.2,6.6-2.2s5.4.8,6.9,2.4Z"/>
    <path class="st0" d="M177.2,492.6c-9.2-5.5-16.1-12.7-20.8-21.7-4.7-9-7.1-18.8-7.1-29.4s2.5-21,7.4-30.1c4.9-9.2,11.9-16.4,21-21.8,9.1-5.4,19.5-8.1,31.4-8.1s19.8,2.1,28.1,6.3c8.3,4.2,14.8,10.1,19.4,17.6,4.6,7.5,6.9,16.2,6.9,25.8s-.5,7.9-1.6,9.8c-1.1,1.9-3.8,3-8.1,3.1l-87.9,1.8c0,5.8,1.8,11.8,5.3,18,3.5,6.1,8.6,11.3,15.1,15.5,6.5,4.2,14.1,6.2,22.7,6.2s12-1,16.6-2.9c4.6-1.9,8.2-4.1,10.8-6.6,2.6-2.5,5.8-5.9,9.5-10.4,1.1-1.4,2.8-2.1,5.1-2.1s3.9.8,5.7,2.3c1.8,1.5,2.6,3.3,2.6,5.3s-.6,3.2-1.8,4.8c-4.9,6.8-10.9,12.5-17.9,17.3-7,4.8-17,7.2-29.9,7.2s-23.5-2.7-32.6-8.2ZM246.3,430.1c1.5,0,2.3-1.1,2.3-3.2,0-9.2-3.7-16.7-11.1-22.5-7.4-5.8-16.7-8.7-27.9-8.7s-16,2.2-22.6,6.5c-6.6,4.3-11.8,9.4-15.5,15.2-3.7,5.8-5.5,10.8-5.5,14.8l80.3-2.1Z"/>
    <path class="st0" d="M291.3,493.3c-7.4-5.2-13.1-11.7-17.3-19.7-1.1-2.2-1.6-3.6-1.6-4.4,0-2.2,1-4,2.9-5.6,1.9-1.6,4-2.4,6.3-2.4s2.7.4,3.6,1.3c.8.9,2,2.4,3.6,4.5,3.9,5.9,7.9,10.5,12.2,14,4.3,3.5,10,5.2,17.1,5.2s12.1-1.6,16.5-4.8c4.4-3.2,6.6-7.3,6.6-12.2s-1.2-6.5-3.6-9c-2.4-2.5-5.3-4.5-8.8-6-3.5-1.5-8.4-3.5-14.9-5.8-8.2-2.9-14.7-5.6-19.7-8-5-2.4-9.3-5.8-12.8-10.1-3.6-4.4-5.3-10-5.3-16.7s1.7-11.6,5-16.7c3.3-5.1,8-9.3,14.2-12.3,6.1-3.1,13.2-4.6,21.2-4.6s15.1,1.5,21.2,4.6c6.1,3.1,10.9,7.2,14.3,12.2,3.4,5.1,5.1,10.7,5.1,16.8s-.6,5.3-1.7,6.7c-1.2,1.4-3.2,2.1-6.1,2.1s-5.1-.6-6.1-1.7c-1-1.2-1.6-2.7-1.7-4.5-.6-7.2-3.2-12.6-7.6-16-4.5-3.5-10.2-5.2-17.3-5.2s-14.2,2-17.7,5.9c-3.5,3.9-5.2,8.1-5.2,12.6s2.3,9.3,6.8,12.1c4.5,2.9,11.6,6,21.1,9.3,8.1,2.9,14.7,5.6,19.6,8.1,4.9,2.5,9.1,5.9,12.6,10.2,3.5,4.3,5.2,9.7,5.2,16.2,0,10-3.9,17.8-11.8,23.5-7.9,5.7-17.5,8.5-29.1,8.5s-19.4-2.6-26.8-7.7Z"/>
    <path class="st0" d="M444.5,464.2c1.2,1.3,1.7,3.7,1.7,7,0,8-2.7,14.8-8,20.3-5.3,5.5-12.1,8.3-20.4,8.3s-19.8-5.1-24.8-15.2c-5-10.2-7.5-25.9-7.5-47.3s.4-17.2,1.2-27.5c-1.7-.2-6.5-.5-14.3-1.2-4.6-.5-6.9-3-6.9-7.6s2.2-6.9,6.7-6.9,3.9.2,7.9.5c3.4.3,6,.5,7.9.5,1.1-11.4,2.9-25.7,5.5-42.9.3-2.3,1.1-4,2.4-5.2,1.3-1.2,3.4-1.7,6.3-1.7s5.2.8,6.9,2.3c1.7,1.5,2.4,3.5,2.1,5.8l-1.2,7.6c-2.3,17.8-3.8,29.5-4.4,35.1l18.5.5c2.3,0,4,.5,5.2,1.4,1.2.9,1.7,2.5,1.7,4.9s-.6,4.9-1.7,5.9-3.3,1.6-6.6,1.7c-4.8.2-10.9.2-18.5.2-.8,9.7-1.2,18.6-1.2,26.8,0,14.9,1.2,26.6,3.6,35.1,2.4,8.5,6.7,12.7,13,12.7s6.1-1.3,8.1-3.9c2-2.6,3.2-6.5,3.5-11.8.1-2.5.6-4.3,1.5-5.4.8-1.2,2.8-1.7,5.9-1.7s4.7.6,5.9,2Z"/>
    <path class="st0" d="M470.4,493.3c-7.4-5.2-13.1-11.7-17.3-19.7-1.1-2.2-1.6-3.6-1.6-4.4,0-2.2,1-4,2.9-5.6,1.9-1.6,4-2.4,6.3-2.4s2.7.4,3.6,1.3c.8.9,2,2.4,3.6,4.5,3.9,5.9,7.9,10.5,12.2,14,4.3,3.5,10,5.2,17.1,5.2s12.1-1.6,16.5-4.8c4.4-3.2,6.6-7.3,6.6-12.2s-1.2-6.5-3.6-9c-2.4-2.5-5.3-4.5-8.8-6-3.5-1.5-8.4-3.5-14.9-5.8-8.2-2.9-14.7-5.6-19.7-8-5-2.4-9.3-5.8-12.8-10.1-3.6-4.4-5.3-10-5.3-16.7s1.7-11.6,5-16.7c3.3-5.1,8-9.3,14.2-12.3,6.1-3.1,13.2-4.6,21.2-4.6s15.1,1.5,21.2,4.6c6.1,3.1,10.9,7.2,14.3,12.2,3.4,5.1,5.1,10.7,5.1,16.8s-.6,5.3-1.7,6.7c-1.2,1.4-3.2,2.1-6.1,2.1s-5.1-.6-6.1-1.7c-1-1.2-1.6-2.7-1.7-4.5-.6-7.2-3.2-12.6-7.6-16-4.5-3.5-10.2-5.2-17.3-5.2s-14.2,2-17.7,5.9-5.2,8.1-5.2,12.6,2.3,9.3,6.8,12.1c4.5,2.9,11.6,6,21.1,9.3,8.1,2.9,14.7,5.6,19.6,8.1,4.9,2.5,9.1,5.9,12.6,10.2,3.5,4.3,5.2,9.7,5.2,16.2,0,10-3.9,17.8-11.8,23.5-7.9,5.7-17.5,8.5-29.1,8.5s-19.4-2.6-26.8-7.7Z"/>
  </g>
  <path class="st0" d="M301.6,2.3h-4.3c-45.7,1.7-82.2,27-104.7,47.9l-9.4,8.7-1.5-12.8c-1.5-13.5-9.1-24.1-23.1-32.4l-5.3-1.6c-4.9,0-8.9,4.5-10,8.8-.8,2.7-1.1,7.8,4.6,11.3,20.5,12.1,13.7,41.6,6.8,62.7l-.2.8-.4.7c-21.1,33.1-33,69.6-33.5,102.5,0,2.9.8,5.3,2.5,7,1.9,1.9,4.8,3,8,3,5,0,10.8-2.7,10.9-10.2,1.1-72.9,68.3-166.8,150-174.1,3-.3,5.9-.4,8.7-.4,70.9,0,108.9,82,114.3,158.1.6,8.3,7.8,10.5,11.9,10.5s5.8-1,7.5-2.8c1.5-1.6,2.2-3.9,2-6.7C431.9,120.8,398.1,2.3,301.6,2.3Z"/>
  <path class="st1" d="M285.6,91.7l4.6-.2c44.2,0,59.6,58.6,61.8,93.2.5,8.2,7.6,10.4,11.8,10.4s5.9-1,7.6-2.9c1.5-1.6,2.2-3.9,2-6.8-2.5-40-23-115.7-82.6-115.7h-2.7c-58.8,2.3-107,70.5-107.7,125.5,0,2.9.8,5.3,2.5,7,1.9,1.9,4.8,3,8,3,5,0,10.8-2.7,10.9-10.2.6-43.4,38.2-99.3,84-103.5Z"/>
</svg>